<svg width="752" height="153" viewBox="0 0 752 153" fill="none" xmlns="http://www.w3.org/2000/svg">
<path fill-rule="evenodd" clip-rule="evenodd" d="M35.1799 0H0V153H35.1799V0ZM137.414 153H98.9286L63.9848 105.055L54.5406 92.129L54.54 92.1282L43.4435 76.8525L43.6797 76.6175L43.4435 76.1475L54.5406 60.8709L63.9848 47.7097L98.9286 0H137.414L84.0539 76.6175L137.414 153ZM242.009 89.5439H218.399L211.316 116.572H249.093L258.301 153H295.133L247.204 0H205.413L157.719 153H193.135L202.579 116.571L209.663 89.5438L213.204 75.4424C217.218 60.1659 221.468 42.3041 225.246 26.0876H226.19C229.6 41.7014 234.104 58.8404 238.017 73.7285L238.018 73.7293L238.468 75.4424L242.009 89.5438L242.009 89.5439ZM331.494 153V0H366.202V125.267H372.104C395.951 125.267 412.242 113.986 412.242 77.3226C412.242 40.659 396.659 31.023 374.229 27.9677V0C416.964 0 447.894 24.6774 447.894 77.3226C447.894 129.733 418.617 153 373.993 153H366.202H366.201H331.494ZM519.199 123.857V28.9078H586.253V0H484.255V153H588.614V123.857H519.199ZM576.1 88.6037V59.6959H527.462V88.6037H576.1ZM622.614 28.9078V0H752V28.9078H622.614ZM705.959 153H671.016V36.1935H705.959V153Z" fill="url(#paint0_linear_927_582)"/>
<defs>
<linearGradient id="paint0_linear_927_582" x1="0" y1="0" x2="750.948" y2="244.057" gradientUnits="userSpaceOnUse">
<stop stop-color="#E4FC70"/>
<stop offset="1" stop-color="#9AECA4"/>
</linearGradient>
</defs>
</svg>
